# xmcd CD database file
# Copyright (C) 1997 Ti Kan
# 
# Track frame offsets:
#     225
#     21790
#     45316
#     73487
# 
# Disc length: 1202 seconds
# 
# Revision: 1
# Processed by: cddbd v1.4b41PL1 Copyright (c) Steve Scherf et al.
# Submitted via: DiscPlay 4.0.3
# 
DISCID=3104af04
DTITLE=Lost Poetry - Time Of Disillusion
DYEAR=1900
DGENRE=
TTITLE0=Skin Deep
TTITLE1=Eternity
TTITLE2=Time Of Disillusion
TTITLE3=Sunrise To Sunset
EXTD=
EXTT0=
EXTT1=
EXTT2=
EXTT3=
PLAYORDER=
